<svg width="66" height="19" fill="none" xmlns="http://www.w3.org/2000/svg"><path opacity=".5" d="M2.124 5.083c0 .046.042.068.127.068.059 0 .322-.039.791-.117a9.04 9.04 0 011.29-.127c-.43.117-.802.238-1.114.362-.306.117-.625.25-.957.4-.326.143-.56.24-.703.293a1.254 1.254 0 01-.371.068c-.333 0-.499-.215-.499-.644 0-1.107.28-1.885.84-2.334.228-.183.593-.397 1.094-.645a16.504 16.504 0 013.809-1.299A10.774 10.774 0 018.687.864c.761 0 1.461.11 2.1.332.637.222 1.171.534 1.6.938.43.397.76.885.987 1.465.234.58.352 1.23.352 1.953 0 1.1-.32 2.168-.957 3.203-.632 1.035-1.478 1.95-2.54 2.744a13.148 13.148 0 01-3.574 1.875c-1.328.462-2.636.693-3.926.693-.24 0-.432-.026-.576-.078a.5.5 0 01-.293-.312c-.058-.15-.088-.375-.088-.674 0-.371.03-.674.088-.908.059-.235.157-.505.293-.81.938-2.078 2.569-4.692 4.893-7.843a10.47 10.47 0 00-1.543.303c-.56.143-1.09.303-1.592.479a13.48 13.48 0 00-1.27.507c-.344.163-.517.28-.517.352zm5.205-1.7c0 .014.013.089.04.225.025.13.038.245.038.342 0 .15-.078.362-.234.635-.15.267-.45.745-.899 1.436a79.63 79.63 0 00-1.152 1.816c-.319.52-.697 1.191-1.133 2.012-.136.26-.23.436-.283.527-.052.091-.137.24-.254.45-.11.207-.192.387-.244.536-.052.15-.078.264-.078.342 0 .17.091.29.273.361.19.066.456.098.801.098.886 0 1.823-.16 2.813-.478A11.58 11.58 0 009.8 10.337c.872-.573 1.569-1.22 2.09-1.943.52-.723.78-1.478.78-2.266 0-.899-.328-1.589-.985-2.07-.658-.489-1.615-.733-2.872-.733-.527 0-1.022.02-1.484.059zm14.85 2.843a.728.728 0 01-.469-.186.593.593 0 01-.215-.469c0-.286.137-.605.41-.957.274-.351.557-.527.85-.527.195 0 .358.062.488.185.13.118.196.29.196.518 0 .28-.134.59-.4.928-.268.338-.554.508-.86.508zm.664 4.365v.713c-.632.813-1.22 1.429-1.768 1.845-.547.41-1.012.616-1.396.616-.534 0-.931-.28-1.192-.84a4.3 4.3 0 01-.39-1.836c0-.254.026-.495.078-.723.052-.234.114-.426.185-.576.072-.15.205-.384.4-.703.925-1.439 1.772-2.158 2.54-2.158.397 0 .595.153.595.459 0 .208-.13.534-.39.976-.254.443-.482.759-.684.948-.566.546-.937.927-1.113 1.142a1.15 1.15 0 00-.254.732c0 .235.088.43.264.587.176.156.403.234.683.234.306 0 .642-.11 1.006-.332.371-.228.85-.59 1.436-1.084zm10.504-1.768c-1.146 1.276-1.72 2.165-1.72 2.666 0 .28.115.42.343.42.188 0 .433-.098.732-.293a23.81 23.81 0 001.426-1.064v.674c-.925.911-1.634 1.569-2.129 1.972-.495.404-.898.606-1.21.606-.535 0-.802-.352-.802-1.055 0-.208.033-.413.098-.615s.153-.41.264-.625c.117-.222.293-.534.527-.938.234-.41.505-.872.81-1.386-.37.188-.836.563-1.396 1.123-.364.351-.674.687-.928 1.005-.254.313-.527.664-.82 1.055-.287.384-.498.645-.635.781-.13.13-.263.196-.4.196-.209 0-.4-.218-.576-.655-.176-.436-.264-.944-.264-1.523 0-.358.04-.638.117-.84.085-.202.248-.488.489-.86.449-.69.836-1.194 1.162-1.513.325-.325.638-.488.937-.488.208 0 .374.036.498.107.13.072.195.183.195.332 0 .065-.02.134-.058.205a1.044 1.044 0 01-.137.196 6.889 6.889 0 01-.303.341c-1.028 1.14-1.543 1.879-1.543 2.217 0 .19.062.284.186.284.078 0 .228-.124.45-.372.227-.253.517-.582.868-.986.358-.41.778-.837 1.26-1.28a14.095 14.095 0 011.66-1.279c.345-.24.632-.36.86-.36.104 0 .205.142.302.429.105.286.157.576.157.869 0 .143-.14.361-.42.654zm8.726-2.597a.728.728 0 01-.468-.186.593.593 0 01-.215-.469c0-.286.136-.605.41-.957.273-.351.556-.527.85-.527.195 0 .358.062.488.185.13.118.195.29.195.518 0 .28-.133.59-.4.928-.267.338-.554.508-.86.508zm.664 4.365v.713c-.631.813-1.22 1.429-1.767 1.845-.547.41-1.013.616-1.397.616-.534 0-.93-.28-1.191-.84a4.3 4.3 0 01-.39-1.836c0-.254.025-.495.077-.723.052-.234.114-.426.186-.576.072-.15.205-.384.4-.703.925-1.439 1.771-2.158 2.54-2.158.397 0 .595.153.595.459 0 .208-.13.534-.39.976-.255.443-.482.759-.684.948-.567.546-.938.927-1.114 1.142-.169.215-.253.46-.253.732 0 .235.088.43.263.587.176.156.404.234.684.234.306 0 .641-.11 1.006-.332.37-.228.85-.59 1.435-1.084zm10.504-1.768c-1.146 1.276-1.718 2.165-1.718 2.666 0 .28.113.42.341.42.19 0 .433-.098.733-.293.306-.202.78-.556 1.425-1.064v.674c-.924.911-1.634 1.569-2.128 1.972-.495.404-.899.606-1.211.606-.534 0-.801-.352-.801-1.055 0-.208.032-.413.098-.615.065-.202.153-.41.263-.625.117-.222.293-.534.527-.938.235-.41.505-.872.811-1.386-.371.188-.837.563-1.396 1.123-.365.351-.674.687-.928 1.005-.254.313-.527.664-.82 1.055-.287.384-.498.645-.635.781-.13.13-.264.196-.4.196-.209 0-.401-.218-.577-.655-.176-.436-.264-.944-.264-1.523 0-.358.04-.638.118-.84.084-.202.247-.488.488-.86.45-.69.837-1.194 1.162-1.513.326-.325.638-.488.938-.488.208 0 .374.036.498.107.13.072.195.183.195.332a.43.43 0 01-.059.205 1.05 1.05 0 01-.136.196 6.78 6.78 0 01-.303.341c-1.029 1.14-1.543 1.879-1.543 2.217 0 .19.062.284.186.284.078 0 .227-.124.449-.372.228-.253.517-.582.869-.986.358-.41.778-.837 1.26-1.28a14.013 14.013 0 011.66-1.279c.345-.24.631-.36.86-.36.103 0 .204.142.302.429.104.286.156.576.156.869 0 .143-.14.361-.42.654zm12.487 2.422l-3.243 2.666c-.911 1.576-1.741 2.75-2.49 3.525-.749.782-1.305 1.172-1.67 1.172-.195 0-.293-.12-.293-.36 0-.47.238-1.069.713-1.798.189-.286.404-.566.645-.84.247-.273.478-.51.693-.712.221-.196.511-.443.87-.743.357-.293.601-.494.732-.605.65-1.328 1.12-2.344 1.406-3.047a30.72 30.72 0 01-1.602 1.601 7.889 7.889 0 01-1.26.967c-.377.222-.719.332-1.025.332-.332 0-.638-.263-.918-.79a3.494 3.494 0 01-.42-1.641c0-.26.059-.534.176-.82a4.29 4.29 0 01.566-.919c.26-.325.59-.657.987-.996.397-.345.862-.68 1.396-1.006 1.01-.631 1.794-.947 2.354-.947.416 0 .625.153.625.46 0 .422-.453.836-1.358 1.24-.553.24-1.103.56-1.65.956-.54.398-.98.82-1.318 1.27-.332.443-.498.843-.498 1.201 0 .176.042.316.127.42a.407.407 0 00.331.156c.228 0 .489-.104.782-.312.293-.209.726-.576 1.299-1.104.26-.24.605-.628 1.035-1.162.436-.54.794-.95 1.074-1.23.286-.287.544-.43.771-.43.13 0 .235.042.313.127.085.078.127.195.127.352 0 .299-.12.735-.361 1.308-.235.566-.661 1.498-1.28 2.793l2.364-1.719v.635z" fill="#414A5A"/></svg>