<svg width="23" height="19" fill="none" xmlns="http://www.w3.org/2000/svg"><path d="M15.812 17.447H.48a.49.49 0 00-.479.5c0 .277.214.5.48.5h15.332a.49.49 0 00.48-.5.49.49 0 00-.48-.5zm7.115-8.837a2.187 2.187 0 00-.985-1.34 2.057 2.057 0 00-.67-.26L4.796 3.807 3.302.723a.468.468 0 00-.58-.249l-1.437.5a.5.5 0 00-.325.524l.48 5c.02.207.16.38.354.433l8.246 2.265-4.133 3.88a.516.516 0 00-.139.512c.052.184.2.321.38.353l2.842.5a.464.464 0 00.316-.059l6.588-3.907 4.535.922c.896.192 1.8-.235 2.286-1.113.282-.51.358-1.105.212-1.674zm-1.07 1.228c-.25.451-.744.685-1.24.578l-4.714-.959a.468.468 0 00-.328.056L8.98 13.426l-1.695-.299L11.34 9.32a.516.516 0 00.145-.49.491.491 0 00-.344-.365L2.36 6.053l-.408-4.257.68-.237 1.415 2.918c.067.14.193.238.34.266l16.709 3.251c.129.025.252.073.366.141.267.161.459.422.539.733.08.312.039.637-.145.97z" fill="#414A5A"/></svg>