<svg width="25" height="19" fill="none" xmlns="http://www.w3.org/2000/svg"><path d="M22.224.707c-.253 0-.5.043-.734.126L5.472 6.486a1.007 1.007 0 01-.887-.111L2.209 4.791a.499.499 0 00-.631.062l-1 1a.5.5 0 00-.047.654l3 4a.5.5 0 00.534.182l8.12-2.255-1.731 5.626a.498.498 0 00.636.621l3-1a.502.502 0 00.276-.226l3.904-6.834 4.652-1.55c.903-.301 1.51-1.143 1.51-2.156A2.21 2.21 0 0022.223.707zm.381 3.415l-4.832 1.61a.502.502 0 00-.276.227l-3.904 6.834-1.898.632 1.714-5.57a.5.5 0 00-.611-.63L4.127 9.634l-2.535-3.38.403-.403L4.03 7.207c.522.348 1.186.43 1.774.222l16.019-5.654c.128-.045.263-.068.401-.068.666 0 1.207.542 1.207 1.27 0 .52-.332.98-.826 1.145zM16.93 17.707h-16a.5.5 0 100 1h16a.5.5 0 100-1z" fill="#414A5A"/></svg>