<svg width="21" height="23" fill="none" xmlns="http://www.w3.org/2000/svg"><path d="M19.96 1.042c-.288-.44-.73-.74-1.245-.846a1.954 1.954 0 00-1.479.282 1.95 1.95 0 00-.846 1.245l-.046.22A2.49 2.49 0 0013.991.256a2.489 2.489 0 00-2.486 2.486v.374c0 .716.304 1.36.79 1.815a2.719 2.719 0 00-1.693 2l-.351 1.746-.806.81H6.091a1.392 1.392 0 00-1.284 1.921h-.349c-.807 0-1.513.546-1.717 1.327l-.507 1.947a.43.43 0 10.831.216l.508-1.946a.915.915 0 01.885-.684h6.295a.43.43 0 00.305-.128l2.175-2.197a.43.43 0 10-.61-.605l-2.05 2.07H6.092a.532.532 0 010-1.062h3.533a.43.43 0 00.305-.127l2.46-2.473a.43.43 0 10-.61-.606l-.43.432.095-.47a1.86 1.86 0 01.807-1.188c.419-.275.92-.37 1.41-.269.49.102.912.389 1.187.808.275.418.37.92.27 1.41l-.002.01-1.077 5.197a1.294 1.294 0 01-1.263 1.028H6.668a1.978 1.978 0 00-1.956 1.761.427.427 0 00-.021.061l-1.316 5.051a.432.432 0 01-.419.324h-.998a.43.43 0 01-.342-.168.43.43 0 01-.076-.374L2.258 18a.43.43 0 10-.832-.217l-.718 2.755c-.101.39-.018.797.228 1.115.247.32.62.502 1.022.502h.998c.588 0 1.102-.397 1.25-.966l.997-3.825.06.064c.377.384.9.605 1.435.605H8.79L7.32 21.56a.43.43 0 00.397.595h6.628a.43.43 0 00.397-.595l-1.47-3.527h2.155c.927 0 1.737-.66 1.925-1.568l.941-4.539a.43.43 0 00-.841-.174l-.941 4.539a1.112 1.112 0 01-1.084.882H6.698c-.306 0-.605-.126-.82-.346a1.083 1.083 0 01-.317-.783 1.113 1.113 0 011.107-1.086h6.108c1.014 0 1.898-.72 2.104-1.712l2.352-11.348a1.1 1.1 0 01.476-.701 1.1 1.1 0 01.833-.159c.29.06.538.23.7.477a1.1 1.1 0 01.16.832l-1.277 6.161a.43.43 0 10.841.175l1.277-6.161a1.954 1.954 0 00-.282-1.479zm-7.618 16.99l1.359 3.263h-5.34l1.36-3.264h2.62zm1.649-13.29a1.628 1.628 0 01-1.627-1.626v-.374a1.628 1.628 0 013.254 0v.374c0 .897-.73 1.627-1.627 1.627zm1.53 1.173a2.738 2.738 0 00-.495-.54c.265-.121.504-.287.709-.489l-.214 1.03z" fill="#414A5A"/></svg>